<svg width="27" height="27" viewBox="0 0 27 27" fill="none" xmlns="http://www.w3.org/2000/svg">
<circle cx="13.5" cy="13.5" r="13.5" fill="#09AE09"/>
<g clip-path="url(#clip0_248_865)">
<path fill-rule="evenodd" clip-rule="evenodd" d="M17.1133 13.7529C18.0266 14.3729 18.6666 15.2129 18.6666 16.3329V18.3329H21.3333V16.3329C21.3333 14.8796 18.9533 14.0196 17.1133 13.7529Z" fill="white"/>
<path d="M11.9999 12.9998C13.4727 12.9998 14.6666 11.8059 14.6666 10.3332C14.6666 8.86041 13.4727 7.6665 11.9999 7.6665C10.5272 7.6665 9.33325 8.86041 9.33325 10.3332C9.33325 11.8059 10.5272 12.9998 11.9999 12.9998Z" fill="white"/>
<path fill-rule="evenodd" clip-rule="evenodd" d="M15.9999 12.9998C17.4733 12.9998 18.6666 11.8065 18.6666 10.3332C18.6666 8.85984 17.4733 7.6665 15.9999 7.6665C15.6866 7.6665 15.3933 7.73317 15.1133 7.8265C15.6666 8.51317 15.9999 9.3865 15.9999 10.3332C15.9999 11.2798 15.6666 12.1532 15.1133 12.8398C15.3933 12.9332 15.6866 12.9998 15.9999 12.9998Z" fill="white"/>
<path fill-rule="evenodd" clip-rule="evenodd" d="M12 13.6665C10.22 13.6665 6.66663 14.5598 6.66663 16.3332V18.3332H17.3333V16.3332C17.3333 14.5598 13.78 13.6665 12 13.6665Z" fill="white"/>
</g>
<defs>
<clipPath id="clip0_248_865">
<rect x="6" y="5" width="16" height="16" rx="8" fill="white"/>
</clipPath>
</defs>
</svg>
