<svg width="10" height="12" viewBox="0 0 10 12" fill="none" xmlns="http://www.w3.org/2000/svg">
<path d="M1.12735 9.99996C1.12735 10.6769 1.68119 11.2307 2.35812 11.2307H7.28119C7.95812 11.2307 8.51196 10.6769 8.51196 9.99996V3.84612C8.51196 3.16919 7.95812 2.61535 7.28119 2.61535H2.35812C1.68119 2.61535 1.12735 3.16919 1.12735 3.84612V9.99996ZM8.51196 0.769193H6.9735L6.53658 0.33227C6.42581 0.221501 6.26581 0.153809 6.10581 0.153809H3.5335C3.3735 0.153809 3.2135 0.221501 3.10273 0.33227L2.66581 0.769193H1.12735C0.788886 0.769193 0.511963 1.04612 0.511963 1.38458C0.511963 1.72304 0.788886 1.99996 1.12735 1.99996H8.51196C8.85042 1.99996 9.12735 1.72304 9.12735 1.38458C9.12735 1.04612 8.85042 0.769193 8.51196 0.769193Z" fill="white"/>
</svg>
