<svg width="27" height="27" viewBox="0 0 27 27" fill="none" xmlns="http://www.w3.org/2000/svg">
<circle cx="13.5" cy="13.5" r="13.5" fill="#0D99FF"/>
<path d="M18.75 18.75H13.5V13.6838C12.9225 14.2175 12.1613 14.55 11.3125 14.55C9.5275 14.55 8.075 13.0975 8.075 11.3125C8.075 10.4539 8.41609 9.63039 9.02324 9.02324C9.63039 8.41609 10.4539 8.075 11.3125 8.075C13.0975 8.075 14.55 9.5275 14.55 11.3125C14.55 12.1613 14.2175 12.9225 13.6838 13.5H18.75M19.625 5.625H7.375C6.40375 5.625 5.625 6.40375 5.625 7.375V19.625C5.625 20.0891 5.80937 20.5342 6.13756 20.8624C6.46575 21.1906 6.91087 21.375 7.375 21.375H19.625C20.0891 21.375 20.5342 21.1906 20.8624 20.8624C21.1906 20.5342 21.375 20.0891 21.375 19.625V7.375C21.375 6.91087 21.1906 6.46575 20.8624 6.13756C20.5342 5.80937 20.0891 5.625 19.625 5.625Z" fill="white"/>
</svg>
