<svg width="144" height="37" viewBox="0 0 144 37" fill="none" xmlns="http://www.w3.org/2000/svg">
<rect width="144" height="37" rx="6" fill="#D9D9D9"/>
<path d="M23.56 18.4C23.56 17.3013 23.8053 16.32 24.296 15.456C24.7973 14.5813 25.4747 13.904 26.328 13.424C27.192 12.9333 28.1573 12.688 29.224 12.688C30.472 12.688 31.5653 13.008 32.504 13.648C33.4427 14.288 34.0987 15.1733 34.472 16.304H31.896C31.64 15.7707 31.2773 15.3707 30.808 15.104C30.3493 14.8373 29.816 14.704 29.208 14.704C28.5573 14.704 27.976 14.8587 27.464 15.168C26.9627 15.4667 26.568 15.8933 26.28 16.448C26.0027 17.0027 25.864 17.6533 25.864 18.4C25.864 19.136 26.0027 19.7867 26.28 20.352C26.568 20.9067 26.9627 21.3387 27.464 21.648C27.976 21.9467 28.5573 22.096 29.208 22.096C29.816 22.096 30.3493 21.9627 30.808 21.696C31.2773 21.4187 31.64 21.0133 31.896 20.48H34.472C34.0987 21.6213 33.4427 22.512 32.504 23.152C31.576 23.7813 30.4827 24.096 29.224 24.096C28.1573 24.096 27.192 23.856 26.328 23.376C25.4747 22.8853 24.7973 22.208 24.296 21.344C23.8053 20.48 23.56 19.4987 23.56 18.4ZM46.6253 14.64V17.44H50.3853V19.216H46.6253V22.176H50.8653V24H44.3853V12.816H50.8653V14.64H46.6253ZM64.8049 12.832C65.9782 12.832 67.0075 13.0613 67.8929 13.52C68.7889 13.9787 69.4769 14.6347 69.9569 15.488C70.4475 16.3307 70.6929 17.312 70.6929 18.432C70.6929 19.552 70.4475 20.5333 69.9569 21.376C69.4769 22.208 68.7889 22.8533 67.8929 23.312C67.0075 23.7707 65.9782 24 64.8049 24H60.9009V12.832H64.8049ZM64.7249 22.096C65.8982 22.096 66.8049 21.776 67.4449 21.136C68.0849 20.496 68.4049 19.5947 68.4049 18.432C68.4049 17.2693 68.0849 16.3627 67.4449 15.712C66.8049 15.0507 65.8982 14.72 64.7249 14.72H63.1409V22.096H64.7249ZM87.2176 21.872H82.7696L82.0336 24H79.6816L83.6976 12.816H86.3056L90.3216 24H87.9536L87.2176 21.872ZM86.6096 20.08L84.9936 15.408L83.3776 20.08H86.6096ZM105.583 24L103.119 19.648H102.063V24H99.8228V12.832H104.015C104.879 12.832 105.615 12.9867 106.223 13.296C106.831 13.5947 107.284 14.0053 107.583 14.528C107.892 15.04 108.047 15.616 108.047 16.256C108.047 16.992 107.833 17.6587 107.407 18.256C106.98 18.8427 106.345 19.248 105.503 19.472L108.175 24H105.583ZM102.063 17.968H103.935C104.543 17.968 104.996 17.824 105.295 17.536C105.593 17.2373 105.743 16.8267 105.743 16.304C105.743 15.792 105.593 15.3973 105.295 15.12C104.996 14.832 104.543 14.688 103.935 14.688H102.063V17.968Z" fill="#451A1A"/>
</svg>
