<svg width="27" height="27" viewBox="0 0 27 27" fill="none" xmlns="http://www.w3.org/2000/svg">
<circle cx="13.5" cy="13.5" r="13.5" fill="#0000FF"/>
<g clip-path="url(#clip0_100_1948)">
<path d="M19.3333 9.00016H16.6667V7.66683C16.6667 6.92683 16.0733 6.3335 15.3333 6.3335H12.6667C11.9267 6.3335 11.3333 6.92683 11.3333 7.66683V9.00016H8.66668C7.92668 9.00016 7.34001 9.5935 7.34001 10.3335L7.33334 17.6668C7.33334 18.4068 7.92668 19.0002 8.66668 19.0002H19.3333C20.0733 19.0002 20.6667 18.4068 20.6667 17.6668V10.3335C20.6667 9.5935 20.0733 9.00016 19.3333 9.00016ZM15.3333 9.00016H12.6667V7.66683H15.3333V9.00016Z" fill="white"/>
</g>
<defs>
<clipPath id="clip0_100_1948">
<rect x="6" y="5" width="16" height="16" rx="8" fill="white"/>
</clipPath>
</defs>
</svg>
