<svg width="16" height="13" viewBox="0 0 16 13" fill="none" xmlns="http://www.w3.org/2000/svg">
<path d="M13.2334 8.16351C13.1795 8.23848 13.1114 8.3021 13.0329 8.35073C12.9544 8.39936 12.867 8.43204 12.7759 8.44692C12.6848 8.46181 12.5916 8.45859 12.5017 8.43746C12.4118 8.41633 12.327 8.37769 12.252 8.32377L9.281 6.18685C9.20597 6.13299 9.14229 6.06488 9.0936 5.98641C9.0449 5.90793 9.01213 5.82064 8.99717 5.7295C8.9822 5.63837 8.98534 5.54518 9.00639 5.45525C9.02744 5.36533 9.066 5.28043 9.11986 5.20541C9.17373 5.13039 9.24184 5.06671 9.32031 5.01801C9.39878 4.96931 9.48608 4.93654 9.57721 4.92158C9.66835 4.90661 9.76154 4.90975 9.85146 4.9308C9.94139 4.95185 10.0263 4.99041 10.1013 5.04428L11.7498 6.22992C11.6095 3.64447 9.46205 1.58402 6.84232 1.58402C4.13207 1.58402 1.92719 3.7889 1.92719 6.49916C1.92719 9.20941 4.13295 11.4149 6.8432 11.4149C7.52521 11.4141 8.19963 11.2717 8.82378 10.9968C9.44794 10.7219 10.0083 10.3205 10.4693 9.81791C10.5952 9.68034 10.7706 9.59842 10.9569 9.59018C11.1432 9.58194 11.3252 9.64805 11.4627 9.77396C11.6003 9.89987 11.6822 10.0753 11.6905 10.2616C11.6987 10.4479 11.6326 10.6299 11.5067 10.7674C10.529 11.8357 9.21403 12.5359 7.78187 12.7508C6.34972 12.9657 4.8872 12.6823 3.63897 11.948C2.39074 11.2138 1.43252 10.0731 0.924595 8.71691C0.41667 7.36071 0.389852 5.87123 0.848627 4.49763C1.3074 3.12403 2.22394 1.94963 3.44493 1.17088C4.66591 0.392126 6.11728 0.0562664 7.55625 0.219481C8.99521 0.382695 10.3345 1.03508 11.35 2.06751C12.3656 3.09994 12.9958 4.44979 13.1353 5.89125L14.2284 4.37133C14.3371 4.21981 14.5017 4.11771 14.6857 4.0875C14.8698 4.05728 15.0583 4.10141 15.2098 4.21019C15.3613 4.31897 15.4634 4.48349 15.4936 4.66754C15.5239 4.8516 15.4797 5.04012 15.3709 5.19164L13.2334 8.16351Z" fill="white"/>
</svg>
