<svg width="16" height="15" viewBox="0 0 16 15" fill="none" xmlns="http://www.w3.org/2000/svg">
<g clip-path="url(#clip0_1_1704)">
<path d="M2.79098 9.16351C2.84489 9.23848 2.91305 9.3021 2.99155 9.35073C3.07005 9.39936 3.15737 9.43204 3.24851 9.44692C3.33964 9.46181 3.43282 9.45859 3.52271 9.43746C3.61261 9.41633 3.69746 9.37769 3.77242 9.32377L6.74342 7.18685C6.81844 7.13299 6.88212 7.06488 6.93082 6.98641C6.97952 6.90793 7.01229 6.82064 7.02725 6.7295C7.04221 6.63837 7.03908 6.54518 7.01802 6.45525C6.99697 6.36533 6.95841 6.28043 6.90455 6.20541C6.85069 6.13039 6.78258 6.06671 6.7041 6.01801C6.62563 5.96931 6.53833 5.93654 6.4472 5.92158C6.35606 5.90661 6.26287 5.90975 6.17295 5.9308C6.08302 5.95185 5.99813 5.99041 5.9231 6.04428L4.27457 7.22992C4.4149 4.64447 6.56236 2.58402 9.18209 2.58402C11.8923 2.58402 14.0972 4.7889 14.0972 7.49916C14.0972 10.2094 11.8915 12.4149 9.18121 12.4149C8.4992 12.4141 7.82479 12.2717 7.20063 11.9968C6.57647 11.7219 6.01616 11.3205 5.55514 10.8179C5.42922 10.6803 5.25382 10.5984 5.06751 10.5902C4.8812 10.5819 4.69925 10.648 4.56168 10.774C4.42411 10.8999 4.3422 11.0753 4.33395 11.2616C4.32571 11.4479 4.39182 11.6299 4.51773 11.7674C5.49546 12.8357 6.81039 13.5359 8.24254 13.7508C9.6747 13.9657 11.1372 13.6823 12.3854 12.948C13.6337 12.2138 14.5919 11.0731 15.0998 9.71691C15.6077 8.36071 15.6346 6.87123 15.1758 5.49763C14.717 4.12403 13.8005 2.94963 12.5795 2.17088C11.3585 1.39213 9.90713 1.05627 8.46817 1.21948C7.02921 1.3827 5.68993 2.03508 4.67438 3.06751C3.65883 4.09994 3.0286 5.44979 2.88912 6.89125L1.79605 5.37133C1.68727 5.21981 1.52276 5.11771 1.3387 5.0875C1.15465 5.05728 0.966124 5.10141 0.814609 5.21019C0.663093 5.31897 0.560997 5.48349 0.530778 5.66754C0.50056 5.8516 0.544696 6.04012 0.653476 6.19164L2.79098 9.16351Z" fill="white"/>
</g>
<defs>
<clipPath id="clip0_1_1704">
<rect width="15" height="15" fill="white" transform="translate(0.512207)"/>
</clipPath>
</defs>
</svg>
