<svg width="27" height="27" viewBox="0 0 27 27" fill="none" xmlns="http://www.w3.org/2000/svg">
<circle cx="13.5" cy="13.5" r="13.5" fill="#FFA500"/>
<g clip-path="url(#clip0_100_1931)">
<path d="M13 16.6667L15.6666 14H13.6666V8H12.3333V14H10.3333L13 16.6667ZM19 8H15V9.32667H19V18.68H6.99996V9.32667H11V8H6.99996C6.26663 8 5.66663 8.6 5.66663 9.33333V18.6667C5.66663 19.4 6.26663 20 6.99996 20H19C19.7333 20 20.3333 19.4 20.3333 18.6667V9.33333C20.3333 8.6 19.7333 8 19 8ZM13 16.6667L15.6666 14H13.6666V8H12.3333V14H10.3333L13 16.6667ZM19 8H15V9.32667H19V18.68H6.99996V9.32667H11V8H6.99996C6.26663 8 5.66663 8.6 5.66663 9.33333V18.6667C5.66663 19.4 6.26663 20 6.99996 20H19C19.7333 20 20.3333 19.4 20.3333 18.6667V9.33333C20.3333 8.6 19.7333 8 19 8Z" fill="white"/>
</g>
<defs>
<clipPath id="clip0_100_1931">
<rect x="5" y="6" width="16" height="16" rx="8" fill="white"/>
</clipPath>
</defs>
</svg>
