<svg width="15" height="15" viewBox="0 0 15 15" fill="none" xmlns="http://www.w3.org/2000/svg">
<path d="M2.27877 9.16351C2.33268 9.23848 2.40084 9.3021 2.47934 9.35073C2.55785 9.39936 2.64516 9.43204 2.7363 9.44692C2.82744 9.46181 2.92061 9.45859 3.01051 9.43746C3.1004 9.41633 3.18525 9.37769 3.26021 9.32377L6.23121 7.18685C6.30623 7.13299 6.36991 7.06488 6.41861 6.98641C6.46731 6.90793 6.50008 6.82064 6.51504 6.7295C6.53 6.63837 6.52687 6.54518 6.50582 6.45525C6.48476 6.36533 6.44621 6.28043 6.39234 6.20541C6.33848 6.13039 6.27037 6.06671 6.1919 6.01801C6.11342 5.96931 6.02613 5.93654 5.93499 5.92158C5.84386 5.90661 5.75067 5.90975 5.66074 5.9308C5.57082 5.95185 5.48592 5.99041 5.4109 6.04428L3.76236 7.22992C3.90269 4.64447 6.05016 2.58402 8.66988 2.58402C11.3801 2.58402 13.585 4.7889 13.585 7.49916C13.585 10.2094 11.3793 12.4149 8.669 12.4149C7.987 12.4141 7.31258 12.2717 6.68842 11.9968C6.06427 11.7219 5.50395 11.3205 5.04293 10.8179C4.91702 10.6803 4.74161 10.5984 4.5553 10.5902C4.36899 10.5819 4.18704 10.648 4.04947 10.774C3.9119 10.8999 3.82999 11.0753 3.82175 11.2616C3.81351 11.4479 3.87961 11.6299 4.00553 11.7674C4.98325 12.8357 6.29818 13.5359 7.73033 13.7508C9.16249 13.9657 10.625 13.6823 11.8732 12.948C13.1215 12.2138 14.0797 11.0731 14.5876 9.71691C15.0955 8.36071 15.1224 6.87123 14.6636 5.49763C14.2048 4.12403 13.2883 2.94963 12.0673 2.17088C10.8463 1.39213 9.39492 1.05627 7.95596 1.21948C6.517 1.3827 5.17772 2.03508 4.16217 3.06751C3.14662 4.09994 2.51639 5.44979 2.37691 6.89125L1.28385 5.37133C1.17507 5.21981 1.01055 5.11771 0.826496 5.0875C0.642439 5.05728 0.453917 5.10141 0.302402 5.21019C0.150886 5.31897 0.0487895 5.48349 0.0185713 5.66754C-0.011647 5.8516 0.0324886 6.04012 0.141269 6.19164L2.27877 9.16351Z" fill="white"/>
</svg>
