<svg width="22" height="22" viewBox="0 0 22 22" fill="none" xmlns="http://www.w3.org/2000/svg">
<g clip-path="url(#clip0_1_1693)">
<path d="M5.41834 8.24447L3.42201 10.2428C3.1828 10.4822 3.18299 10.8738 3.42244 11.113L5.42072 13.1094C5.80819 13.4964 6.47382 13.222 6.47355 12.6737L6.47288 11.2899L15.1757 11.2857L15.1764 12.6694C15.1723 13.2134 15.8339 13.4915 16.221 13.1041L18.2173 11.1058C18.4565 10.8663 18.4563 10.4747 18.2169 10.2355L16.2186 8.23918C15.8311 7.85209 15.1655 8.12656 15.1657 8.67484L15.1664 10.0586L6.46357 10.0629L6.4629 8.6791C6.46698 8.13517 5.80543 7.857 5.41834 8.24447Z" fill="white"/>
</g>
<defs>
<clipPath id="clip0_1_1693">
<rect width="14.7692" height="14.7692" fill="white" transform="translate(10.8247 21.1177) rotate(-135.028)"/>
</clipPath>
</defs>
</svg>
